<?xml version="1.0" encoding="utf-8"?>
<svg id="ICON" xmlns="http://www.w3.org/2000/svg" viewBox="0 0 128 128"><title>www</title><path id="www" d="M74.88,128H69.17a2,2,0,0,1-2-1.51L64,114.94l-.13.46-3.18,11.11a2.06,2.06,0,0,1-2,1.49H53.08a2.07,2.07,0,0,1-2-1.5l-6.69-23.89a2.05,2.05,0,0,1,2-2.61h5.19a2,2,0,0,1,2,1.54L56.26,112l3-10.52a2.08,2.08,0,0,1,2-1.48h5.57a2.07,2.07,0,0,1,2,1.5l3,10.55,2.76-10.52a2.06,2.06,0,0,1,2-1.53h5.1a2.05,2.05,0,0,1,2,2.61L76.85,126.5A2.06,2.06,0,0,1,74.88,128ZM64,110.39a1,1,0,0,1,1,.72l1.1,3.72L69.17,126h5.71l6.79-23.93L76.52,102l-3.75,14.12a1,1,0,0,1-1,.75h0a1,1,0,0,1-1-.73l-4-14.1-5.62,0-4.1,14.06a1,1,0,0,1-1,.72h0a1,1,0,0,1-.95-.74l-3.62-14-5.24,0L53,126l5.67,0L63,111.11A1,1,0,0,1,64,110.39ZM32.26,128H26.55a2,2,0,0,1-2-1.51l-3.22-11.55-.13.46-3.18,11.11a2.06,2.06,0,0,1-2,1.49H10.46a2.07,2.07,0,0,1-2-1.5L1.79,102.61a2,2,0,0,1,2-2.61H9a2,2,0,0,1,2,1.54L13.64,112l3-10.52a2.07,2.07,0,0,1,2-1.48h5.57a2.07,2.07,0,0,1,2,1.5l2.95,10.55,2.76-10.52a2.06,2.06,0,0,1,2-1.53H39a2.05,2.05,0,0,1,2,2.61L34.23,126.5A2.05,2.05,0,0,1,32.26,128Zm-10.9-17.61h0a1,1,0,0,1,1,.72l1.1,3.72L26.55,126h5.71l6.79-23.93L33.9,102l-3.75,14.12a1,1,0,0,1-1,.75h0a1,1,0,0,1-1-.73L24.27,102l-5.62,0-4.1,14.06a1,1,0,0,1-1,.72,1,1,0,0,1-1-.74L9,102l-5.24,0,6.65,24,5.67,0,4.33-14.89A1,1,0,0,1,21.36,110.39ZM117.5,128h-5.71a2.06,2.06,0,0,1-2-1.5l-3.21-11.56-.14.46-3.18,11.11a2.06,2.06,0,0,1-2,1.49H95.7a2.07,2.07,0,0,1-2-1.5L87,102.61A2.05,2.05,0,0,1,89,100h5.19a2.05,2.05,0,0,1,2,1.54L98.88,112l3-10.52a2.06,2.06,0,0,1,2-1.48h5.57a2.07,2.07,0,0,1,2,1.5l3,10.55,2.76-10.52a2.06,2.06,0,0,1,2-1.53h5.1a2.05,2.05,0,0,1,2,2.61l-6.74,23.89A2.05,2.05,0,0,1,117.5,128Zm-10.89-17.61h0a1,1,0,0,1,1,.72l1.1,3.72L111.79,126h5.71l6.79-23.93-5.15-.07-3.75,14.12a1,1,0,0,1-1,.75h0a1,1,0,0,1-1-.73L109.51,102l-5.62,0-4.1,14.06a1,1,0,0,1-1,.72,1,1,0,0,1-1-.74l-3.62-14L89,102l6.65,24,5.67,0,4.33-14.89A1,1,0,0,1,106.61,110.39Zm13.12-14.9a64,64,0,1,0-111.46,0,1,1,0,0,0,1.37.38A1,1,0,0,0,10,94.51a62,62,0,1,1,108,0,1,1,0,0,0,.37,1.36,1,1,0,0,0,.5.13A1,1,0,0,0,119.73,95.49Z" style="fill:#001b41"/></svg>